<svg width="26" height="23" viewBox="0 0 26 23" fill="none" xmlns="http://www.w3.org/2000/svg">
<mask id="mask0_48_73" style="mask-type:alpha" maskUnits="userSpaceOnUse" x="0" y="0" width="26" height="23">
<path d="M9 0.5H17C17.0821 0.500099 17.1629 0.520807 17.2354 0.55957C17.3078 0.598374 17.3694 0.654303 17.415 0.722656L19.1191 3.27734L19.2676 3.5H23C23.663 3.5 24.2987 3.76358 24.7676 4.23242C25.2364 4.70126 25.5 5.33696 25.5 6V20L25.4873 20.2471C25.4305 20.8194 25.1778 21.3573 24.7676 21.7676C24.2987 22.2364 23.663 22.5 23 22.5H3C2.33696 22.5 1.70126 22.2364 1.23242 21.7676C0.763581 21.2987 0.5 20.663 0.5 20V6C0.5 5.33696 0.763581 4.70126 1.23242 4.23242C1.70126 3.76358 2.33696 3.5 3 3.5H6.73145L6.87988 3.27734L8.58496 0.722656C8.63057 0.654305 8.69222 0.598374 8.76465 0.55957C8.81916 0.530389 8.87843 0.511427 8.93945 0.503906L9 0.5ZM13 7.5C12.0111 7.5 11.0439 7.79337 10.2217 8.34277C9.39962 8.89217 8.75924 9.67342 8.38086 10.5869C8.00249 11.5005 7.90279 12.5057 8.0957 13.4756C8.28864 14.4455 8.7656 15.3359 9.46484 16.0352C10.1641 16.7344 11.0545 17.2114 12.0244 17.4043C12.9943 17.5972 13.9995 17.4975 14.9131 17.1191C15.8266 16.7408 16.6078 16.1004 17.1572 15.2783C17.7066 14.4561 18 13.4889 18 12.5C18 11.1739 17.4728 9.90253 16.5352 8.96484C15.5975 8.02716 14.3261 7.5 13 7.5Z" fill="black" stroke="black"/>
</mask>
<g mask="url(#mask0_48_73)">
<path d="M0 0H5.2V23H0V0Z" fill="#FF930F"/>
<path d="M5.2 0H10.4V23H5.2V0Z" fill="#FFD70F"/>
<path d="M10.4 0H15.6V23H10.4V0Z" fill="#23BAD8"/>
<path d="M15.6 0H20.8V23H15.6V0Z" fill="#8C57F8"/>
<path d="M20.8 0H26V23H20.8V0Z" fill="#E055F5"/>
</g>
</svg>
